<?xml version="1.0" encoding="utf-8"?>
<!-- Generator: Adobe Illustrator 19.0.0, SVG Export Plug-In . SVG Version: 6.00 Build 0)  -->
<svg version="1.1" id="Layer_1" xmlns="http://www.w3.org/2000/svg" xmlns:xlink="http://www.w3.org/1999/xlink" x="0px" y="0px"
	 viewBox="230.3 380.8 149.9 32.5" enable-background="new 230.3 380.8 149.9 32.5" xml:space="preserve">
<g id="XMLID_1_">
	<path id="XMLID_43_" fill="#FFFFFF" d="M322.8,411.6c-6.8,0-11.8-5.5-11.8-13.1v-12.4h5v12.4c0,5.1,2.6,8.3,6.8,8.3
		s6.8-3.2,6.8-8.3V386h5v12.5C334.7,406.1,329.7,411.6,322.8,411.6L322.8,411.6z"/>
	<rect id="XMLID_42_" x="339.3" y="386.1" fill="#FFFFFF" width="5" height="24.8"/>
	<path id="XMLID_41_" fill="#FFFFFF" d="M272.4,407.1c-4.6,0-8.4-3.8-8.4-8.4s3.8-8.4,8.4-8.4c2.2,0,4.2,0.9,5.7,2.2
		c0.6-1.5,1.4-3,2.4-4.2c-2.2-1.7-5-2.8-8.1-2.8c-7.3,0-13.2,5.9-13.2,13.2c0,7.3,5.9,13.2,13.2,13.2c3,0,5.8-1,8.1-2.8
		c-1-1.3-1.8-2.7-2.4-4.2C276.5,406.3,274.6,407.1,272.4,407.1z"/>
	<path id="XMLID_38_" fill="#FFFFFF" d="M359.5,411.6c-3.4,0-6.2-1.2-8.5-3.7c-2.2-2.5-3.3-5.7-3.3-9.5c0-3.7,1.1-6.9,3.3-9.3
		s5-3.7,8.3-3.7c2.8,0,5.4,1.2,7.7,3.5l0.9,1v-3.8h4.9v24.8H368v-3.4l-0.9,0.9C364.8,410.4,362.2,411.6,359.5,411.6L359.5,411.6z
		 M360.5,389.6c-2.2,0-4.1,0.8-5.6,2.5c-1.4,1.7-2.2,3.8-2.2,6.2c0,2.6,0.7,4.7,2.1,6.4c1.5,1.7,3.3,2.6,5.6,2.6
		c2.4,0,4.3-0.8,5.8-2.5s2.2-3.8,2.2-6.4c0-2.5-0.7-4.7-2.2-6.4C364.8,390.5,362.8,389.6,360.5,389.6L360.5,389.6z"/>
	<path id="XMLID_37_" fill="#FFFFFF" d="M294.9,385.6C294.8,385.6,294.8,385.6,294.9,385.6c-0.3,0-0.4,0.1-0.3,0.3v0.1
		c0.5,1,1.6,3.4,3.7,5c2.7,2.1,4.3,4.6,4.3,7.8c0,4-3.1,8.4-8.3,8.4c-5.1,0-8.3-4.4-8.3-8.4c0-3.1,1.6-5.7,4.3-7.8
		c2.1-1.7,3.3-4.1,3.8-5.1c0.1-0.2,0-0.3-0.2-0.3l0,0c-7.1,0.2-12.9,6-12.9,13.2c0,5.9,5,12.7,13,12.7s13.3-5.5,13.3-12.7
		C307.5,391.5,301.9,385.9,294.9,385.6z"/>
	<polygon id="XMLID_36_" fill="#FFFFFF" points="304.1,402.7 300.7,406.3 305.5,410.8 312.7,410.8 	"/>
	<path id="XMLID_33_" fill="#FFFFFF" d="M254.9,410.9h5.2l-13-28.9c-0.3-0.7-1.1-1.2-1.9-1.2s-1.6,0.5-1.9,1.2l-13,28.9h5.2l1.9-4.1
		h15.8L254.9,410.9z M239.4,402.1l5.8-12.8l5.8,12.8H239.4z"/>
	<path id="XMLID_28_" fill="#FFFFFF" d="M377.8,385.6c1.3,0,2.4,1,2.4,2.3s-1,2.4-2.4,2.4c-1.3,0-2.4-1-2.4-2.4
		C375.4,386.6,376.5,385.6,377.8,385.6L377.8,385.6z M377.8,386c-1,0-1.8,0.8-1.8,1.9c0,1,0.8,1.9,1.8,1.9s1.8-0.8,1.8-1.9
		C379.6,386.9,378.9,386,377.8,386L377.8,386z M377.5,389.1H377v-2.3c0.2,0,0.5-0.1,0.9-0.1s0.6,0.1,0.8,0.2
		c0.1,0.1,0.2,0.3,0.2,0.5c0,0.3-0.2,0.5-0.5,0.6l0,0c0.2,0.1,0.4,0.3,0.4,0.6c0.1,0.4,0.1,0.5,0.2,0.6h-0.6
		c-0.1-0.1-0.1-0.3-0.2-0.6c0-0.3-0.2-0.4-0.5-0.4h-0.3L377.5,389.1L377.5,389.1z M377.5,387.8h0.3c0.3,0,0.5-0.1,0.5-0.3
		s-0.2-0.4-0.5-0.4c-0.1,0-0.2,0-0.3,0V387.8z"/>
</g>
</svg>
